<mxfile>
    <diagram id="Di3RCTQmMUPDWeFtM2nf" name="Страница 1">
        <mxGraphModel dx="820" dy="575" grid="1" gridSize="10" guides="1" tooltips="1" connect="1" arrows="1" fold="1" page="1" pageScale="1" pageWidth="827" pageHeight="1169" math="0" shadow="0">
            <root>
                <mxCell id="0"/>
                <mxCell id="1" parent="0"/>
                <mxCell id="2" value="StatusDay" style="swimlane;" vertex="1" parent="1">
                    <mxGeometry x="410" y="330" width="200" height="60" as="geometry"/>
                </mxCell>
                <mxCell id="4" value="+dayStatus(string) : void" style="text;html=1;align=center;verticalAlign=middle;resizable=0;points=[];autosize=1;strokeColor=none;" vertex="1" parent="2">
                    <mxGeometry x="5" y="30" width="140" height="20" as="geometry"/>
                </mxCell>
                <mxCell id="5" value="NewStatusDay" style="swimlane;" vertex="1" parent="1">
                    <mxGeometry x="180" y="315" width="200" height="90" as="geometry"/>
                </mxCell>
                <mxCell id="6" value="+niceDay () : void" style="text;html=1;align=center;verticalAlign=middle;resizable=0;points=[];autosize=1;strokeColor=none;" vertex="1" parent="5">
                    <mxGeometry y="30" width="110" height="20" as="geometry"/>
                </mxCell>
                <mxCell id="7" value="+badDay () : void" style="text;html=1;align=center;verticalAlign=middle;resizable=0;points=[];autosize=1;strokeColor=none;" vertex="1" parent="5">
                    <mxGeometry x="5" y="60" width="100" height="20" as="geometry"/>
                </mxCell>
                <mxCell id="8" value="StatusDayAdapter" style="swimlane;" vertex="1" parent="1">
                    <mxGeometry x="290" y="180" width="200" height="80" as="geometry"/>
                </mxCell>
                <mxCell id="9" value="+firstDay&amp;nbsp;" style="text;html=1;align=center;verticalAlign=middle;resizable=0;points=[];autosize=1;strokeColor=none;" vertex="1" parent="8">
                    <mxGeometry y="30" width="70" height="20" as="geometry"/>
                </mxCell>
                <mxCell id="11" value="+dayStatus (string) : void" style="text;html=1;align=center;verticalAlign=middle;resizable=0;points=[];autosize=1;strokeColor=none;" vertex="1" parent="8">
                    <mxGeometry y="50" width="150" height="20" as="geometry"/>
                </mxCell>
                <mxCell id="12" value="" style="endArrow=open;endFill=1;endSize=12;html=1;entryX=0.25;entryY=0;entryDx=0;entryDy=0;exitX=0;exitY=1;exitDx=0;exitDy=0;" edge="1" parent="1" source="8" target="5">
                    <mxGeometry width="160" relative="1" as="geometry">
                        <mxPoint x="80" y="219.5" as="sourcePoint"/>
                        <mxPoint x="240" y="219.5" as="targetPoint"/>
                    </mxGeometry>
                </mxCell>
                <mxCell id="13" value="" style="endArrow=block;dashed=1;endFill=0;endSize=12;html=1;entryX=0.75;entryY=0;entryDx=0;entryDy=0;exitX=1;exitY=1;exitDx=0;exitDy=0;" edge="1" parent="1" source="8" target="2">
                    <mxGeometry width="160" relative="1" as="geometry">
                        <mxPoint x="330" y="290" as="sourcePoint"/>
                        <mxPoint x="490" y="290" as="targetPoint"/>
                    </mxGeometry>
                </mxCell>
            </root>
        </mxGraphModel>
    </diagram>
</mxfile>